<svg xmlns="http://www.w3.org/2000/svg" width="170.879" height="170.879" viewBox="0 0 170.879 170.879">
  <path fill="#000" d="M143.8 136.363l4.277-4.277c.011-.011.011-.022.026-.033l7.092-7.098a5.363 5.363 0 0 0 0-7.6 5.373 5.373 0 0 0-7.601 0l-3.324 3.322-35.154-35.155 11.092-11.09c.173-.17.342-.359.487-.56l49.093-64.935a5.367 5.367 0 0 0-.477-7.034 5.374 5.374 0 0 0-7.029-.518l-65.25 48.778a5.754 5.754 0 0 0-.584.5l-11.091 11.09-11.09-11.09a5.17 5.17 0 0 0-.559-.488L8.773 1.086C6.645-.526 3.642-.326 1.7 1.6a5.364 5.364 0 0 0-.517 7.028L50 73.848c.15.2.3.4.5.58l11.094 11.089-35.161 35.161-3.325-3.329a5.375 5.375 0 0 0-7.601 0 5.371 5.371 0 0 0 0 7.604l7.126 7.127 4.273 4.273L1.577 161.7a5.369 5.369 0 0 0 0 7.602c1.049 1.1 2.4 1.6 3.8 1.576a5.35 5.35 0 0 0 3.801-1.576l25.344-25.344 4.276 4.3 7.126 7.124c1.05 1 2.4 1.6 3.8 1.575a5.371 5.371 0 0 0 3.801-1.575 5.37 5.37 0 0 0 0-7.602l-3.328-3.322 35.161-35.156 35.161 35.156-3.324 3.322a5.367 5.367 0 0 0 0 7.602c1.045 1 2.4 1.6 3.8 1.6a5.354 5.354 0 0 0 3.795-1.575l7.112-7.113c.006-.005.011-.005.016-.011l4.279-4.271 25.344 25.3c1.045 1.1 2.4 1.6 3.8 1.576a5.337 5.337 0 0 0 3.797-1.576 5.367 5.367 0 0 0 0-7.602L143.8 136.363z"/>
</svg>
